<svg width="1650" height="1079" viewBox="0 0 1650 1079" fill="none" xmlns="http://www.w3.org/2000/svg">
<circle cx="227.85" cy="158.558" r="0.408097" fill="white"/>
<circle cx="379.275" cy="263.515" r="0.203802" fill="white"/>
<circle cx="235.594" cy="229.888" r="0.815206" fill="white"/>
<circle cx="320.084" cy="126.066" r="0.408097" transform="rotate(110.26 320.084 126.066)" fill="white"/>
<circle cx="215.477" cy="131.51" r="0.203802" transform="rotate(110.26 215.477 131.51)" fill="white"/>
<circle cx="292.252" cy="246.6" r="0.408097" fill="white"/>
<circle cx="410.98" cy="352.018" r="0.408097" transform="rotate(139.535 410.98 352.018)" fill="white"/>
<circle cx="279.903" cy="302.301" r="0.203802" transform="rotate(139.535 279.903 302.301)" fill="white"/>
<circle cx="301.96" cy="213.918" r="0.815206" transform="rotate(139.535 301.96 213.918)" fill="white"/>
<circle cx="361.896" cy="436.596" r="0.408097" transform="rotate(-110.205 361.896 436.596)" fill="white"/>
<circle cx="437.949" cy="364.565" r="0.203802" transform="rotate(-110.205 437.949 364.565)" fill="white"/>
<circle cx="304.846" cy="326.831" r="0.408097" transform="rotate(139.535 304.846 326.831)" fill="white"/>
<circle cx="137.036" cy="509.452" r="0.408097" transform="rotate(-88.2823 137.036 509.452)" fill="white"/>
<circle cx="261.895" cy="445.708" r="0.203802" transform="rotate(-88.2823 261.895 445.708)" fill="white"/>
<circle cx="208.567" cy="503.85" r="0.815206" transform="rotate(-88.2823 208.567 503.85)" fill="white"/>
<circle cx="107.323" cy="416.286" r="0.408097" transform="rotate(21.9781 107.323 416.286)" fill="white"/>
<circle cx="109.629" cy="521.01" r="0.203802" transform="rotate(21.9781 109.629 521.01)" fill="white"/>
<circle cx="226.97" cy="447.719" r="0.408097" transform="rotate(-88.2823 226.97 447.719)" fill="white"/>
<circle cx="190.838" cy="720.511" r="0.408097" transform="rotate(107.719 190.838 720.511)" fill="white"/>
<circle cx="53.2448" cy="747.366" r="0.203802" transform="rotate(107.719 53.2448 747.366)" fill="white"/>
<circle cx="120.535" cy="706.178" r="0.815206" transform="rotate(107.719 120.535 706.178)" fill="white"/>
<circle cx="193.717" cy="818.258" r="0.408097" transform="rotate(-142.02 193.717 818.258)" fill="white"/>
<circle cx="220.369" cy="716.956" r="0.203802" transform="rotate(-142.02 220.369 716.956)" fill="white"/>
<circle cx="87.3718" cy="755.061" r="0.408097" transform="rotate(107.719 87.3718 755.061)" fill="white"/>
<circle cx="154.153" cy="255.028" r="0.408097" transform="rotate(107.719 154.153 255.028)" fill="white"/>
<circle cx="16.5602" cy="281.883" r="0.203802" transform="rotate(107.719 16.5602 281.883)" fill="white"/>
<circle cx="80.0994" cy="271.673" r="0.815206" transform="rotate(107.719 80.0994 271.673)" fill="white"/>
<circle cx="157.033" cy="352.775" r="0.408097" transform="rotate(-142.02 157.033 352.775)" fill="white" fill-opacity="0.5"/>
<circle cx="183.684" cy="251.473" r="0.203802" transform="rotate(-142.02 183.684 251.473)" fill="white" fill-opacity="0.5"/>
<circle cx="50.6873" cy="289.578" r="0.408097" transform="rotate(107.719 50.6873 289.578)" fill="white" fill-opacity="0.5"/>
<circle cx="137.416" cy="55.7115" r="0.408097" transform="rotate(130.758 137.416 55.7115)" fill="white" fill-opacity="0.5"/>
<circle cx="0.287766" cy="26.5767" r="0.203802" transform="rotate(130.758 0.287766 26.5767)" fill="white" fill-opacity="0.5"/>
<circle cx="78.3298" cy="15.0082" r="0.815206" transform="rotate(130.758 78.3298 15.0082)" fill="white" fill-opacity="0.5"/>
<circle cx="101.812" cy="146.789" r="0.408097" transform="rotate(-118.981 101.812 146.789)" fill="white" fill-opacity="0.5"/>
<circle cx="165.983" cy="63.997" r="0.203802" transform="rotate(-118.981 165.983 63.997)" fill="white" fill-opacity="0.5"/>
<circle cx="28.6813" cy="47.0138" r="0.408097" transform="rotate(130.758 28.6813 47.0138)" fill="white"/>
<circle cx="635.506" cy="125.004" r="0.408097" transform="rotate(130.758 635.506 125.004)" fill="white"/>
<circle cx="498.379" cy="95.8693" r="0.203802" transform="rotate(130.758 498.379 95.8693)" fill="white"/>
<circle cx="576.421" cy="84.3008" r="0.815206" transform="rotate(130.758 576.421 84.3008)" fill="white"/>
<circle cx="599.902" cy="216.082" r="0.408097" transform="rotate(-118.981 599.902 216.082)" fill="white"/>
<circle cx="664.074" cy="133.29" r="0.203802" transform="rotate(-118.981 664.074 133.29)" fill="white"/>
<circle cx="526.772" cy="116.306" r="0.408097" transform="rotate(130.758 526.772 116.306)" fill="white"/>
<circle cx="503.701" cy="132.19" r="0.408097" transform="rotate(41.9839 503.701 132.19)" fill="white" fill-opacity="0.48"/>
<circle cx="471.639" cy="268.663" r="0.203802" transform="rotate(41.9839 471.639 268.663)" fill="white" fill-opacity="0.48"/>
<circle cx="461.743" cy="190.392" r="0.815206" transform="rotate(41.9839 461.743 190.392)" fill="white" fill-opacity="0.48"/>
<circle cx="593.996" cy="169.734" r="0.408097" transform="rotate(152.244 593.996 169.734)" fill="white" fill-opacity="0.48"/>
<circle cx="512.596" cy="103.806" r="0.203802" transform="rotate(152.244 512.596 103.806)" fill="white" fill-opacity="0.48"/>
<circle cx="492.679" cy="240.714" r="0.408097" transform="rotate(41.9839 492.679 240.714)" fill="white" fill-opacity="0.48"/>
<circle cx="934.004" cy="43.0846" r="0.815206" transform="rotate(172.091 934.004 43.0846)" fill="white" fill-opacity="0.48"/>
<circle cx="951.489" cy="112.67" r="0.408097" transform="rotate(172.091 951.489 112.67)" fill="white" fill-opacity="0.48"/>
<circle cx="867.762" cy="0.229899" r="0.203802" transform="rotate(172.091 867.762 0.229899)" fill="white" fill-opacity="0.48"/>
<circle cx="864.605" cy="157.546" r="0.408097" transform="rotate(-77.6491 864.605 157.546)" fill="white" fill-opacity="0.48"/>
<circle cx="967.468" cy="137.758" r="0.203802" transform="rotate(-77.6491 967.468 137.758)" fill="white"/>
<circle cx="875.586" cy="34.3277" r="0.408097" transform="rotate(172.091 875.586 34.3277)" fill="white"/>
<circle cx="730.328" cy="109.364" r="0.408097" transform="rotate(41.9839 730.328 109.364)" fill="white"/>
<circle cx="698.266" cy="245.838" r="0.203802" transform="rotate(41.9839 698.266 245.838)" fill="white"/>
<circle cx="637.827" cy="160.117" r="0.815206" transform="rotate(41.9839 637.827 160.117)" fill="white"/>
<circle cx="820.624" cy="146.908" r="0.408097" transform="rotate(152.244 820.624 146.908)" fill="white"/>
<circle cx="739.223" cy="80.9807" r="0.203802" transform="rotate(152.244 739.223 80.9807)" fill="white"/>
<circle cx="719.307" cy="217.888" r="0.408097" transform="rotate(41.9839 719.307 217.888)" fill="white"/>
<circle cx="1137.27" cy="516.325" r="0.408097" transform="rotate(-106.984 1137.27 516.325)" fill="white"/>
<circle cx="1235.1" cy="415.912" r="0.203802" transform="rotate(-106.984 1235.1 415.912)" fill="white"/>
<circle cx="1343.66" cy="523.565" r="0.815206" transform="rotate(-106.984 1343.66 523.565)" fill="white"/>
<circle cx="1240.36" cy="309.394" r="0.408097" transform="rotate(3.27623 1240.36 309.394)" fill="white"/>
<circle cx="1115.02" cy="536.061" r="0.203802" transform="rotate(3.27623 1115.02 536.061)" fill="white"/>
<circle cx="1202.66" cy="429.015" r="0.408097" transform="rotate(-106.984 1202.66 429.015)" fill="white"/>
<circle cx="228.32" cy="612.252" r="0.408097" transform="rotate(-43.074 228.32 612.252)" fill="white"/>
<circle cx="361.523" cy="655.952" r="0.203802" transform="rotate(-43.074 361.523 655.952)" fill="white"/>
<circle cx="282.69" cy="659.068" r="0.815206" transform="rotate(-43.074 282.69 659.068)" fill="white"/>
<circle cx="273.503" cy="525.527" r="0.408097" transform="rotate(67.1864 273.503 525.527)" fill="white"/>
<circle cx="200.808" cy="600.945" r="0.203802" transform="rotate(67.1864 200.808 600.945)" fill="white"/>
<circle cx="335.491" cy="632.582" r="0.408097" transform="rotate(-43.074 335.491 632.582)" fill="white"/>
<circle cx="264.389" cy="96.4561" r="0.203802" transform="rotate(110.26 264.389 96.4561)" fill="white"/>
<circle cx="237.457" cy="72.7852" r="0.815206" transform="rotate(110.26 237.457 72.7852)" fill="white"/>
<circle cx="1130.36" cy="139.484" r="0.408097" transform="rotate(-54.7628 1130.36 139.484)" fill="white"/>
<circle cx="1269.66" cy="155.291" r="0.203802" transform="rotate(-54.7628 1269.66 155.291)" fill="white"/>
<circle cx="1193.09" cy="174.314" r="0.815206" transform="rotate(-54.7628 1193.09 174.314)" fill="white"/>
<circle cx="1157.04" cy="45.4038" r="0.408097" transform="rotate(55.4976 1157.04 45.4038)" fill="white" fill-opacity="0.5"/>
<circle cx="1101.13" cy="133.986" r="0.203802" transform="rotate(55.4976 1101.13 133.986)" fill="white" fill-opacity="0.5"/>
<circle cx="1239.43" cy="137.68" r="0.408097" transform="rotate(-54.7628 1239.43 137.68)" fill="white" fill-opacity="0.5"/>
<circle cx="1458.03" cy="87.6707" r="0.408097" transform="rotate(84.7718 1458.03 87.6707)" fill="white" fill-opacity="0.5"/>
<circle cx="1277.8" cy="179.904" r="0.203802" transform="rotate(84.7718 1277.8 179.904)" fill="white" fill-opacity="0.5"/>
<circle cx="1323.71" cy="115.74" r="0.815206" transform="rotate(84.7718 1323.71 115.74)" fill="white" fill-opacity="0.5"/>
<circle cx="1434.79" cy="190.417" r="0.408097" transform="rotate(-164.968 1434.79 190.417)" fill="white" fill-opacity="0.5"/>
<circle cx="1419.84" cy="86.7407" r="0.203802" transform="rotate(-164.968 1419.84 86.7407)" fill="white" fill-opacity="0.5"/>
<circle cx="1312.23" cy="173.684" r="0.408097" transform="rotate(84.7718 1312.23 173.684)" fill="white" fill-opacity="0.5"/>
<circle cx="1364.57" cy="416.112" r="0.408097" transform="rotate(-143.045 1364.57 416.112)" fill="white" fill-opacity="0.5"/>
<circle cx="1384.54" cy="277.353" r="0.203802" transform="rotate(-143.045 1384.54 277.353)" fill="white"/>
<circle cx="1401.26" cy="354.456" r="0.815206" transform="rotate(-143.045 1401.26 354.456)" fill="white"/>
<circle cx="1475.27" cy="228.821" r="0.408097" transform="rotate(-32.7847 1475.27 228.821)" fill="white"/>
<circle cx="1358.19" cy="445.165" r="0.203802" transform="rotate(-32.7847 1358.19 445.165)" fill="white"/>
<circle cx="1366.03" cy="307.039" r="0.408097" transform="rotate(-143.045 1366.03 307.039)" fill="white"/>
<circle cx="1567.99" cy="493.941" r="0.408097" transform="rotate(52.9565 1567.99 493.941)" fill="white"/>
<circle cx="1510.54" cy="621.818" r="0.203802" transform="rotate(52.9565 1510.54 621.818)" fill="white"/>
<circle cx="1515.73" cy="543.093" r="0.815206" transform="rotate(52.9565 1515.73 543.093)" fill="white"/>
<circle cx="1649.49" cy="547.986" r="0.408097" transform="rotate(163.217 1649.49 547.986)" fill="white"/>
<circle cx="1582.13" cy="467.77" r="0.203802" transform="rotate(163.217 1582.13 467.77)" fill="white"/>
<circle cx="1536.52" cy="598.384" r="0.408097" transform="rotate(52.9565 1536.52 598.384)" fill="white"/>
<circle cx="1166.64" cy="255.338" r="0.408097" transform="rotate(52.9565 1166.64 255.338)" fill="white"/>
<circle cx="1109.18" cy="383.214" r="0.203802" transform="rotate(52.9565 1109.18 383.214)" fill="white"/>
<circle cx="1272.05" cy="292.17" r="0.815206" transform="rotate(52.9565 1272.05 292.17)" fill="white"/>
<circle cx="1317.07" cy="239.363" r="0.408097" transform="rotate(163.217 1317.07 239.363)" fill="white"/>
<circle cx="1180.77" cy="229.167" r="0.203802" transform="rotate(163.217 1180.77 229.167)" fill="white"/>
<circle cx="1135.16" cy="359.78" r="0.408097" transform="rotate(52.9565 1135.16 359.78)" fill="white"/>
<circle cx="994.182" cy="154.01" r="0.408097" transform="rotate(75.9954 994.182 154.01)" fill="white"/>
<circle cx="891.268" cy="249.203" r="0.203802" transform="rotate(75.9954 891.268 249.203)" fill="white"/>
<circle cx="926.847" cy="178.785" r="0.815206" transform="rotate(75.9954 926.847 178.785)" fill="white"/>
<circle cx="1048.03" cy="235.639" r="0.408097" transform="rotate(-173.744 1048.03 235.639)" fill="white"/>
<circle cx="1017.43" cy="135.458" r="0.203802" transform="rotate(-173.744 1017.43 135.458)" fill="white"/>
<circle cx="924.341" cy="237.803" r="0.408097" transform="rotate(75.9954 924.341 237.803)" fill="white"/>
<circle cx="1501.2" cy="400.866" r="0.408097" transform="rotate(-97.8368 1501.2 400.866)" fill="white"/>
<circle cx="1613.74" cy="317.282" r="0.203802" transform="rotate(-97.8368 1613.74 317.282)" fill="white"/>
<circle cx="1570.8" cy="383.469" r="0.815206" transform="rotate(-97.8368 1570.8 383.469)" fill="white"/>
<circle cx="1456.43" cy="313.925" r="0.408097" transform="rotate(12.4236 1456.43 313.925)" fill="white"/>
<circle cx="1476.09" cy="416.813" r="0.203802" transform="rotate(12.4236 1476.09 416.813)" fill="white" fill-opacity="0.5"/>
<circle cx="1579.63" cy="325.062" r="0.408097" transform="rotate(-97.8368 1579.63 325.062)" fill="white" fill-opacity="0.5"/>
<circle cx="1100.72" cy="73.8105" r="0.203802" transform="rotate(55.4976 1100.72 73.8105)" fill="white" fill-opacity="0.5"/>
<circle cx="1105.38" cy="84.1225" r="0.815206" transform="rotate(55.4976 1105.38 84.1225)" fill="white" fill-opacity="0.5"/>
<circle cx="1399.39" cy="676.586" r="0.408097" transform="rotate(67.783 1399.39 676.586)" fill="white" fill-opacity="0.5"/>
<circle cx="1311.13" cy="785.503" r="0.203802" transform="rotate(67.783 1311.13 785.503)" fill="white" fill-opacity="0.5"/>
<circle cx="1336.29" cy="710.726" r="0.815206" transform="rotate(67.783 1336.29 710.726)" fill="white" fill-opacity="0.5"/>
<circle cx="1464.35" cy="749.686" r="0.408097" transform="rotate(178.043 1464.35 749.686)" fill="white" fill-opacity="0.5"/>
<circle cx="1419.76" cy="654.902" r="0.203802" transform="rotate(178.043 1419.76 654.902)" fill="white"/>
<circle cx="1342.24" cy="769.496" r="0.408097" transform="rotate(67.783 1342.24 769.496)" fill="white"/>
<circle cx="1289.54" cy="919.27" r="0.408097" transform="rotate(-152.682 1289.54 919.27)" fill="white" fill-opacity="0.45"/>
<circle cx="1286.01" cy="779.125" r="0.203802" transform="rotate(-152.682 1286.01 779.125)" fill="white" fill-opacity="0.45"/>
<circle cx="1315.4" cy="852.341" r="0.815206" transform="rotate(-152.682 1315.4 852.341)" fill="white" fill-opacity="0.45"/>
<circle cx="1192.68" cy="905.811" r="0.408097" transform="rotate(-42.422 1192.68 905.811)" fill="white" fill-opacity="0.45"/>
<circle cx="1288.12" cy="948.98" r="0.203802" transform="rotate(-42.422 1288.12 948.98)" fill="white" fill-opacity="0.45"/>
<circle cx="1272.73" cy="811.491" r="0.408097" transform="rotate(-152.682 1272.73 811.491)" fill="white" fill-opacity="0.45"/>
<circle cx="1040.21" cy="725.192" r="0.408097" transform="rotate(-20.4993 1040.21 725.192)" fill="white"/>
<circle cx="1146.44" cy="816.679" r="0.203802" transform="rotate(-20.4993 1146.44 816.679)" fill="white" fill-opacity="0.91"/>
<circle cx="1072.45" cy="789.294" r="0.815206" transform="rotate(-20.4993 1072.45 789.294)" fill="white" fill-opacity="0.91"/>
<circle cx="1115.23" cy="662.458" r="0.408097" transform="rotate(89.7611 1115.23 662.458)" fill="white" fill-opacity="0.91"/>
<circle cx="1019.15" cy="704.19" r="0.203802" transform="rotate(89.7611 1019.15 704.19)" fill="white" fill-opacity="0.91"/>
<circle cx="1131.37" cy="785.107" r="0.408097" transform="rotate(-20.4993 1131.37 785.107)" fill="white" fill-opacity="0.42"/>
<circle cx="865.167" cy="854.804" r="0.408097" transform="rotate(175.502 865.167 854.804)" fill="white" fill-opacity="0.42"/>
<circle cx="788.279" cy="737.58" r="0.203802" transform="rotate(175.502 788.279 737.58)" fill="white" fill-opacity="0.42"/>
<circle cx="851.853" cy="784.301" r="0.815206" transform="rotate(175.502 851.853 784.301)" fill="white" fill-opacity="0.42"/>
<circle cx="775.765" cy="894.429" r="0.408097" transform="rotate(-74.2373 775.765 894.429)" fill="white" fill-opacity="0.91"/>
<circle cx="879.624" cy="880.798" r="0.203802" transform="rotate(-74.2373 879.624 880.798)" fill="white" fill-opacity="0.91"/>
<circle cx="794.06" cy="772.083" r="0.408097" transform="rotate(175.502 794.06 772.083)" fill="white"/>
<circle cx="1282.22" cy="644.837" r="0.408097" transform="rotate(175.502 1282.22 644.837)" fill="white"/>
<circle cx="1205.33" cy="527.613" r="0.203802" transform="rotate(175.502 1205.33 527.613)" fill="white"/>
<circle cx="1268.91" cy="574.334" r="0.815206" transform="rotate(175.502 1268.91 574.334)" fill="white"/>
<circle cx="1192.82" cy="684.462" r="0.408097" transform="rotate(-74.2373 1192.82 684.462)" fill="white"/>
<circle cx="1296.68" cy="670.831" r="0.203802" transform="rotate(-74.2373 1296.68 670.831)" fill="white"/>
<circle cx="1211.11" cy="562.116" r="0.408097" transform="rotate(175.502 1211.11 562.116)" fill="white"/>
<circle cx="1460.41" cy="553.977" r="0.408097" transform="rotate(-161.459 1460.41 553.977)" fill="white" fill-opacity="0.27"/>
<circle cx="1435.53" cy="416.013" r="0.203802" transform="rotate(-161.459 1435.53 416.013)" fill="white" fill-opacity="0.27"/>
<circle cx="1475.75" cy="483.888" r="0.815206" transform="rotate(-161.459 1475.75 483.888)" fill="white" fill-opacity="0.27"/>
<circle cx="1362.63" cy="555.454" r="0.408097" transform="rotate(-51.1984 1362.63 555.454)" fill="white" fill-opacity="0.27"/>
<circle cx="1463.54" cy="583.557" r="0.203802" transform="rotate(-51.1984 1463.54 583.557)" fill="white" fill-opacity="0.27"/>
<circle cx="1427.35" cy="450.026" r="0.408097" transform="rotate(-161.459 1427.35 450.026)" fill="white" fill-opacity="0.27"/>
<circle cx="979.56" cy="848.569" r="0.408097" transform="rotate(24.709 979.56 848.569)" fill="white" fill-opacity="0.27"/>
<circle cx="989.472" cy="988.407" r="0.203802" transform="rotate(24.709 989.472 988.407)" fill="white" fill-opacity="0.27"/>
<circle cx="956.779" cy="916.605" r="0.815206" transform="rotate(24.709 956.779 916.605)" fill="white"/>
<circle cx="1076.93" cy="857.605" r="0.408097" transform="rotate(134.969 1076.93 857.605)" fill="white"/>
<circle cx="979.625" cy="818.824" r="0.203802" transform="rotate(134.969 979.625 818.824)" fill="white"/>
<circle cx="1001.26" cy="955.471" r="0.408097" transform="rotate(24.709 1001.26 955.471)" fill="white"/>
<circle cx="1470.7" cy="686.93" r="0.203802" transform="rotate(178.043 1470.7 686.93)" fill="white"/>
<circle cx="1459.5" cy="685.307" r="0.815206" transform="rotate(178.043 1459.5 685.307)" fill="white"/>
<circle cx="343.073" cy="847.505" r="0.408097" transform="rotate(-111.512 343.073 847.505)" fill="white"/>
<circle cx="432.668" cy="739.683" r="0.203802" transform="rotate(-111.512 432.668 739.683)" fill="white"/>
<circle cx="406.594" cy="814.144" r="0.815206" transform="rotate(-111.512 406.594 814.144)" fill="white"/>
<circle cx="279.022" cy="773.611" r="0.408097" transform="rotate(-1.25131 279.022 773.611)" fill="white"/>
<circle cx="322.446" cy="868.936" r="0.203802" transform="rotate(-1.25131 322.446 868.936)" fill="white"/>
<circle cx="401.367" cy="755.305" r="0.408097" transform="rotate(-111.512 401.367 755.305)" fill="white"/>
<circle cx="455.905" cy="606.191" r="0.408097" transform="rotate(28.0229 455.905 606.191)" fill="white"/>
<circle cx="457.715" cy="746.369" r="0.203802" transform="rotate(28.0229 457.715 746.369)" fill="white"/>
<circle cx="429.227" cy="672.797" r="0.815206" transform="rotate(28.0229 429.227 672.797)" fill="white"/>
<circle cx="552.59" cy="620.842" r="0.408097" transform="rotate(138.283 552.59 620.842)" fill="white"/>
<circle cx="457.688" cy="576.501" r="0.203802" transform="rotate(138.283 457.688 576.501)" fill="white"/>
<circle cx="471.39" cy="714.169" r="0.408097" transform="rotate(28.0229 471.39 714.169)" fill="white"/>
<circle cx="702.826" cy="803.323" r="0.408097" transform="rotate(160.206 702.826 803.323)" fill="white"/>
<circle cx="597.736" cy="710.536" r="0.203802" transform="rotate(160.206 597.736 710.536)" fill="white"/>
<circle cx="671.384" cy="738.83" r="0.815206" transform="rotate(160.206 671.384 738.83)" fill="white"/>
<circle cx="627.044" cy="865.13" r="0.408097" transform="rotate(-89.5336 627.044 865.13)" fill="white"/>
<circle cx="723.628" cy="824.583" r="0.203802" transform="rotate(-89.5336 723.628 824.583)" fill="white"/>
<circle cx="612.414" cy="742.292" r="0.408097" transform="rotate(160.206 612.414 742.292)" fill="white"/>
<circle cx="879.454" cy="675.876" r="0.408097" transform="rotate(-3.79243 879.454 675.876)" fill="white"/>
<circle cx="954.892" cy="794.037" r="0.203802" transform="rotate(-3.79243 954.892 794.037)" fill="white"/>
<circle cx="891.899" cy="746.537" r="0.815206" transform="rotate(-3.79243 891.899 746.537)" fill="white"/>
<circle cx="969.336" cy="637.354" r="0.408097" transform="rotate(106.468 969.336 637.354)" fill="white"/>
<circle cx="865.317" cy="649.706" r="0.203802" transform="rotate(106.468 865.317 649.706)" fill="white"/>
<circle cx="949.538" cy="759.466" r="0.408097" transform="rotate(-3.79243 949.538 759.466)" fill="white"/>
<circle cx="459.846" cy="880.694" r="0.408097" transform="rotate(-3.79243 459.846 880.694)" fill="white"/>
<circle cx="535.285" cy="998.855" r="0.203802" transform="rotate(-3.79243 535.285 998.855)" fill="white"/>
<circle cx="472.292" cy="951.356" r="0.815206" transform="rotate(-3.79243 472.292 951.356)" fill="white"/>
<circle cx="549.729" cy="842.172" r="0.408097" transform="rotate(106.468 549.729 842.172)" fill="white"/>
<circle cx="445.711" cy="854.523" r="0.203802" transform="rotate(106.468 445.711 854.523)" fill="white"/>
<circle cx="529.93" cy="964.284" r="0.408097" transform="rotate(-3.79243 529.93 964.284)" fill="white"/>
<circle cx="280.552" cy="969.353" r="0.408097" transform="rotate(19.2465 280.552 969.353)" fill="white"/>
<circle cx="264.35" cy="1039.25" r="0.815206" transform="rotate(19.2465 264.35 1039.25)" fill="white"/>
<circle cx="378.341" cy="969.08" r="0.408097" transform="rotate(129.507 378.341 969.08)" fill="white"/>
<circle cx="277.785" cy="939.738" r="0.203802" transform="rotate(129.507 277.785 939.738)" fill="white"/>
<circle cx="312.332" cy="1073.7" r="0.408097" transform="rotate(19.2465 312.332 1073.7)" fill="white"/>
<circle cx="764.992" cy="680.703" r="0.408097" transform="rotate(-154.586 764.992 680.703)" fill="white"/>
<circle cx="1019.28" cy="644.285" r="0.203802" transform="rotate(-154.586 1019.28 644.285)" fill="white"/>
<circle cx="788.61" cy="612.952" r="0.815206" transform="rotate(-154.586 788.61 612.952)" fill="white" fill-opacity="0.28"/>
<circle cx="667.739" cy="670.468" r="0.408097" transform="rotate(-44.3253 667.739 670.468)" fill="white" fill-opacity="0.28"/>
<circle cx="764.561" cy="710.444" r="0.203802" transform="rotate(-44.3253 764.561 710.444)" fill="white" fill-opacity="0.28"/>
<circle cx="744.606" cy="573.542" r="0.408097" transform="rotate(-154.586 744.606 573.542)" fill="white" fill-opacity="0.28"/>
<circle cx="271.898" cy="836.285" r="0.203802" transform="rotate(-1.25131 271.898 836.285)" fill="white"/>
<circle cx="283.075" cy="838.045" r="0.815206" transform="rotate(-1.25131 283.075 838.045)" fill="white"/>
<circle cx="118.924" cy="605.01" r="0.408097" transform="rotate(41.9839 118.924 605.01)" fill="white" fill-opacity="0.8"/>
<circle cx="86.8618" cy="741.483" r="0.203802" transform="rotate(41.9839 86.8618 741.483)" fill="white" fill-opacity="0.8"/>
<circle cx="76.9659" cy="663.211" r="0.815206" transform="rotate(41.9839 76.9659 663.211)" fill="white" fill-opacity="0.8"/>
<circle cx="209.218" cy="642.554" r="0.408097" transform="rotate(152.244 209.218 642.554)" fill="white" fill-opacity="0.8"/>
<circle cx="127.818" cy="576.626" r="0.203802" transform="rotate(152.244 127.818 576.626)" fill="white" fill-opacity="0.8"/>
<circle cx="107.901" cy="713.534" r="0.408097" transform="rotate(41.9839 107.901 713.534)" fill="white" fill-opacity="0.8"/>
<circle cx="298.269" cy="483.544" r="0.408097" transform="rotate(41.9839 298.269 483.544)" fill="white" fill-opacity="0.7"/>
<circle cx="266.208" cy="620.017" r="0.203802" transform="rotate(41.9839 266.208 620.017)" fill="white" fill-opacity="0.7"/>
<circle cx="256.311" cy="541.745" r="0.815206" transform="rotate(41.9839 256.311 541.745)" fill="white" fill-opacity="0.7"/>
<circle cx="388.564" cy="521.088" r="0.408097" transform="rotate(152.244 388.564 521.088)" fill="white" fill-opacity="0.7"/>
<circle cx="307.163" cy="455.16" r="0.203802" transform="rotate(152.244 307.163 455.16)" fill="white" fill-opacity="0.7"/>
<circle cx="287.247" cy="592.068" r="0.408097" transform="rotate(41.9839 287.247 592.068)" fill="white" fill-opacity="0.7"/>
</svg>
