<svg width="320" height="520" viewBox="0 0 320 520" fill="none" xmlns="http://www.w3.org/2000/svg">
<ellipse cx="44.1214" cy="75.2432" rx="0.0969696" ry="0.234207" fill="white"/>
<ellipse cx="73.5424" cy="124.288" rx="0.0395241" ry="0.0954628" fill="white"/>
<ellipse cx="45.7696" cy="108.735" rx="0.193939" ry="0.468414" fill="white"/>
<ellipse cx="0.222567" cy="0.121334" rx="0.222567" ry="0.121334" transform="matrix(-0.149014 0.988835 -0.75098 -0.660325 62.2544 60.0199)" fill="white"/>
<ellipse cx="0.090598" cy="0.0496776" rx="0.090598" ry="0.0496776" transform="matrix(-0.151057 0.988525 -0.746385 -0.665515 41.8911 62.3619)" fill="white"/>
<ellipse cx="56.7273" cy="116.463" rx="0.0969696" ry="0.234207" fill="white"/>
<ellipse cx="0.167876" cy="0.189947" rx="0.167876" ry="0.189947" transform="matrix(-0.442484 0.896776 -0.328102 -0.944642 79.9028 165.881)" fill="white"/>
<ellipse cx="0.0688697" cy="0.0770277" rx="0.0688697" ry="0.0770277" transform="matrix(-0.436613 0.899649 -0.332996 -0.942928 54.3032 142.46)" fill="white"/>
<ellipse cx="0.335748" cy="0.379889" rx="0.335748" ry="0.379889" transform="matrix(-0.442496 0.896771 -0.328111 -0.944639 58.7637 101.24)" fill="white"/>
<ellipse cx="0.222567" cy="0.121333" rx="0.222567" ry="0.121333" transform="matrix(-0.149012 -0.988835 0.750975 -0.66033 70.2061 205.696)" fill="white"/>
<ellipse cx="0.0906251" cy="0.0496311" rx="0.0906251" ry="0.0496311" transform="matrix(-0.150621 -0.988591 0.747375 -0.664402 84.9453 171.97)" fill="white"/>
<ellipse cx="0.167873" cy="0.189943" rx="0.167873" ry="0.189943" transform="matrix(-0.442498 0.89677 -0.328112 -0.944639 59.1514 154.171)" fill="white"/>
<ellipse cx="0.234083" cy="0.0972551" rx="0.234083" ry="0.0972551" transform="matrix(0.0144573 -0.999896 0.996461 0.0840584 26.5698 239.89)" fill="white"/>
<ellipse cx="0.0954275" cy="0.0396103" rx="0.0954275" ry="0.0396103" transform="matrix(0.0124134 -0.999923 0.997387 0.0722478 50.812 209.912)" fill="white"/>
<ellipse cx="0.468173" cy="0.19451" rx="0.468173" ry="0.19451" transform="matrix(0.0144571 -0.999896 0.996461 0.0840597 40.3394 237.548)" fill="white"/>
<ellipse cx="0.125623" cy="0.220175" rx="0.125623" ry="0.220175" transform="matrix(0.715707 0.698401 -0.164953 0.986301 20.7515 195.859)" fill="white"/>
<ellipse cx="0.0511871" cy="0.0897557" rx="0.0511871" ry="0.0897557" transform="matrix(0.716044 0.698055 -0.164791 0.986329 21.3335 245.042)" fill="white"/>
<ellipse cx="0.23409" cy="0.0972542" rx="0.23409" ry="0.0972542" transform="matrix(0.0144567 -0.999896 0.996461 0.0840618 44.0244 210.848)" fill="white"/>
<ellipse cx="0.224753" cy="0.117239" rx="0.224753" ry="0.117239" transform="matrix(-0.133325 0.991072 -0.786609 -0.617451 37.0425 338.256)" fill="white"/>
<ellipse cx="0.091729" cy="0.047559" rx="0.091729" ry="0.047559" transform="matrix(-0.131129 0.991365 -0.791638 -0.610991 10.4727 350.903)" fill="white"/>
<ellipse cx="0.449505" cy="0.234479" rx="0.449505" ry="0.234479" transform="matrix(-0.133326 0.991072 -0.786611 -0.617449 23.6606 331.698)" fill="white"/>
<ellipse cx="0.163188" cy="0.193986" rx="0.163188" ry="0.193986" transform="matrix(-0.46825 -0.883596 0.307712 -0.95148 37.624 384.629)" fill="white"/>
<ellipse cx="0.0665002" cy="0.0790841" rx="0.0665002" ry="0.0790841" transform="matrix(-0.468476 -0.883476 0.30754 -0.951535 42.6665 336.851)" fill="white"/>
<ellipse cx="0.224753" cy="0.11724" rx="0.224753" ry="0.11724" transform="matrix(-0.133326 0.991072 -0.786612 -0.617448 17.0669 354.651)" fill="white"/>
<ellipse cx="0.22475" cy="0.117239" rx="0.22475" ry="0.117239" transform="matrix(-0.133327 0.991072 -0.786613 -0.617446 30.0605 120.445)" fill="white"/>
<ellipse cx="0.0917291" cy="0.0475591" rx="0.0917291" ry="0.0475591" transform="matrix(-0.131129 0.991365 -0.791639 -0.61099 3.29688 133.092)" fill="white"/>
<ellipse cx="0.4495" cy="0.234478" rx="0.4495" ry="0.234478" transform="matrix(-0.133328 0.991072 -0.786615 -0.617444 15.709 127.94)" fill="white"/>
<ellipse cx="0.163188" cy="0.193986" rx="0.163188" ry="0.193986" transform="matrix(-0.468253 -0.883594 0.307714 -0.951479 30.4482 166.349)" fill="white" fill-opacity="0.5"/>
<ellipse cx="0.0664983" cy="0.0790818" rx="0.0664983" ry="0.0790818" transform="matrix(-0.468473 -0.883478 0.307538 -0.951536 35.6851 119.04)" fill="white" fill-opacity="0.5"/>
<ellipse cx="0.224747" cy="0.117238" rx="0.224747" ry="0.117238" transform="matrix(-0.133329 0.991072 -0.786618 -0.617439 9.89111 136.371)" fill="white" fill-opacity="0.5"/>
<ellipse cx="0.187858" cy="0.170207" rx="0.187858" ry="0.170207" transform="matrix(-0.338648 0.940913 -0.429928 -0.902863 26.7637 27.2311)" fill="white" fill-opacity="0.5"/>
<ellipse cx="0.0767798" cy="0.0691459" rx="0.0767798" ry="0.0691459" transform="matrix(-0.336065 0.941839 -0.432965 -0.901411 0.193848 13.6471)" fill="white" fill-opacity="0.5"/>
<ellipse cx="0.375715" cy="0.340413" rx="0.375715" ry="0.340413" transform="matrix(-0.33865 0.940912 -0.42993 -0.902862 15.3213 8.02612)" fill="white" fill-opacity="0.5"/>
<ellipse cx="0.210166" cy="0.141737" rx="0.210166" ry="0.141737" transform="matrix(-0.223691 -0.97466 0.598346 -0.801238 19.7817 69.8564)" fill="white" fill-opacity="0.5"/>
<ellipse cx="0.085679" cy="0.057752" rx="0.085679" ry="0.057752" transform="matrix(-0.223502 -0.974704 0.598679 -0.800989 32.1938 30.9784)" fill="white" fill-opacity="0.5"/>
<ellipse cx="0.187858" cy="0.170207" rx="0.187858" ry="0.170207" transform="matrix(-0.338649 0.940913 -0.429929 -0.902863 5.62402 23.0154)" fill="white"/>
<ellipse cx="0.187857" cy="0.170206" rx="0.187857" ry="0.170206" transform="matrix(-0.338642 0.940915 -0.42992 -0.902867 123.345 59.5514)" fill="white"/>
<ellipse cx="0.07678" cy="0.069146" rx="0.07678" ry="0.069146" transform="matrix(-0.336062 0.94184 -0.432961 -0.901413 96.7759 45.9675)" fill="white"/>
<ellipse cx="0.375715" cy="0.340413" rx="0.375715" ry="0.340413" transform="matrix(-0.338651 0.940912 -0.429931 -0.902862 112.097 40.3466)" fill="white"/>
<ellipse cx="0.210168" cy="0.141737" rx="0.210168" ry="0.141737" transform="matrix(-0.223683 -0.974662 0.598333 -0.801248 116.364 102.645)" fill="white"/>
<ellipse cx="0.0856779" cy="0.0577522" rx="0.0856779" ry="0.0577522" transform="matrix(-0.223512 -0.974701 0.598698 -0.800974 128.776 63.7671)" fill="white"/>
<ellipse cx="0.187858" cy="0.170207" rx="0.187858" ry="0.170207" transform="matrix(-0.33865 0.940912 -0.42993 -0.902862 102.206 55.3357)" fill="white"/>
<ellipse cx="0.172488" cy="0.185764" rx="0.172488" ry="0.185764" transform="matrix(0.417783 0.908547 -0.349247 0.937031 97.7456 62.8303)" fill="white" fill-opacity="0.48"/>
<ellipse cx="0.0702954" cy="0.0757296" rx="0.0702954" ry="0.0757296" transform="matrix(0.417936 0.908477 -0.349106 0.937083 91.5396 126.534)" fill="white" fill-opacity="0.48"/>
<ellipse cx="0.344977" cy="0.371527" rx="0.344977" ry="0.371527" transform="matrix(0.417783 0.908547 -0.349247 0.937031 89.6001 89.5298)" fill="white" fill-opacity="0.48"/>
<ellipse cx="0.139356" cy="0.211751" rx="0.139356" ry="0.211751" transform="matrix(-0.614386 0.789006 -0.21495 -0.976625 115.394 80.63)" fill="white" fill-opacity="0.48"/>
<ellipse cx="0.0565689" cy="0.0864626" rx="0.0565689" ry="0.0864626" transform="matrix(-0.618268 0.785968 -0.212859 -0.977083 99.4907 49.7148)" fill="white" fill-opacity="0.48"/>
<ellipse cx="0.17249" cy="0.185765" rx="0.17249" ry="0.185765" transform="matrix(0.417779 0.908549 -0.349243 0.937032 95.6123 113.419)" fill="white" fill-opacity="0.48"/>
<ellipse cx="0.202811" cy="0.464639" rx="0.202811" ry="0.464639" transform="matrix(-0.946932 0.321434 -0.0580763 -0.998312 181.333 21.6101)" fill="white" fill-opacity="0.48"/>
<ellipse cx="0.101408" cy="0.23232" rx="0.101408" ry="0.23232" transform="matrix(-0.946935 0.321424 -0.0580783 -0.998312 184.63 53.9305)" fill="white" fill-opacity="0.48"/>
<ellipse cx="0.0412991" cy="0.0947112" rx="0.0412991" ry="0.0947112" transform="matrix(-0.948063 0.318083 -0.0574344 -0.998349 168.339 1)" fill="white" fill-opacity="0.48"/>
<ellipse cx="0.229974" cy="0.106626" rx="0.229974" ry="0.106626" transform="matrix(0.0876687 -0.99615 0.889576 0.456788 167.563 75.009)" fill="white" fill-opacity="0.48"/>
<ellipse cx="0.0936382" cy="0.0436744" rx="0.0936382" ry="0.0436744" transform="matrix(0.0902672 -0.995918 0.883942 0.467597 187.54 65.6407)" fill="white"/>
<ellipse cx="0.101408" cy="0.23232" rx="0.101408" ry="0.23232" transform="matrix(-0.946935 0.321424 -0.0580783 -0.998312 169.891 17.3944)" fill="white"/>
<ellipse cx="0.172489" cy="0.185765" rx="0.172489" ry="0.185765" transform="matrix(0.417781 0.908548 -0.349245 0.937032 141.576 52.0569)" fill="white"/>
<ellipse cx="0.0702954" cy="0.0757296" rx="0.0702954" ry="0.0757296" transform="matrix(0.417936 0.908477 -0.349106 0.937083 135.37 116.229)" fill="white"/>
<ellipse cx="0.344977" cy="0.371527" rx="0.344977" ry="0.371527" transform="matrix(0.417783 0.908547 -0.349247 0.937031 123.733 75.4774)" fill="white"/>
<ellipse cx="0.139356" cy="0.211751" rx="0.139356" ry="0.211751" transform="matrix(-0.614386 0.789006 -0.21495 -0.976625 159.224 69.8564)" fill="white"/>
<ellipse cx="0.0565704" cy="0.0864629" rx="0.0565704" ry="0.0864629" transform="matrix(-0.618295 0.785946 -0.212873 -0.97708 143.321 38.9413)" fill="white"/>
<ellipse cx="0.172488" cy="0.185764" rx="0.172488" ry="0.185764" transform="matrix(0.417783 0.908547 -0.349247 0.937031 139.442 102.645)" fill="white"/>
<ellipse cx="0.225762" cy="0.11528" rx="0.225762" ry="0.11528" transform="matrix(-0.125576 -0.992084 0.804374 -0.594123 220.509 243.169)" fill="white"/>
<ellipse cx="0.0920256" cy="0.0469759" rx="0.0920256" ry="0.0469759" transform="matrix(-0.125452 -0.9921 0.804714 -0.593663 239.515 195.859)" fill="white"/>
<ellipse cx="0.451519" cy="0.230568" rx="0.451519" ry="0.230568" transform="matrix(-0.125586 -0.992083 0.804396 -0.594094 260.46 246.916)" fill="white"/>
<ellipse cx="0.0976123" cy="0.233945" rx="0.0976123" ry="0.233945" transform="matrix(0.992084 0.125575 -0.0216884 0.999765 240.485 145.739)" fill="white"/>
<ellipse cx="0.0398417" cy="0.0953392" rx="0.0398417" ry="0.0953392" transform="matrix(0.990577 0.136958 -0.0236936 0.999719 216.242 252.069)" fill="white"/>
<ellipse cx="0.225756" cy="0.115279" rx="0.225756" ry="0.115279" transform="matrix(-0.12558 -0.992084 0.804382 -0.594113 233.115 202.417)" fill="white"/>
<ellipse cx="0.17476" cy="0.183621" rx="0.17476" ry="0.183621" transform="matrix(0.40581 -0.913957 0.36012 0.932906 44.2183 287.668)" fill="white"/>
<ellipse cx="0.0713045" cy="0.0747767" rx="0.0713045" ry="0.0747767" transform="matrix(0.404891 -0.914365 0.360966 0.932579 70.0122 308.278)" fill="white"/>
<ellipse cx="0.349527" cy="0.367248" rx="0.349527" ry="0.367248" transform="matrix(0.4058 -0.913962 0.36011 0.93291 54.6909 309.683)" fill="white"/>
<ellipse cx="0.218895" cy="0.127847" rx="0.218895" ry="0.127847" transform="matrix(0.173093 0.984905 -0.698165 0.715937 53.1392 246.916)" fill="white"/>
<ellipse cx="0.0893213" cy="0.0519389" rx="0.0893213" ry="0.0519389" transform="matrix(0.171557 0.985174 -0.701444 0.712725 38.9819 282.515)" fill="white"/>
<ellipse cx="0.174767" cy="0.183628" rx="0.174767" ry="0.183628" transform="matrix(0.40579 -0.913966 0.360101 0.932913 64.9697 297.504)" fill="white"/>
<ellipse cx="0.0905981" cy="0.0496787" rx="0.0905981" ry="0.0496787" transform="matrix(-0.151063 0.988524 -0.746397 -0.665501 51.394 45.9675)" fill="white"/>
<ellipse cx="0.445132" cy="0.242667" rx="0.445132" ry="0.242667" transform="matrix(-0.149015 0.988835 -0.750981 -0.660324 46.3516 34.7256)" fill="white"/>
<ellipse cx="0.19975" cy="0.156078" rx="0.19975" ry="0.156078" transform="matrix(0.278448 -0.960451 0.508899 0.860826 219.151 66.5776)" fill="white"/>
<ellipse cx="0.0812398" cy="0.0638451" rx="0.0812398" ry="0.0638451" transform="matrix(0.280684 -0.9598 0.505623 0.862755 246.109 73.6038)" fill="white"/>
<ellipse cx="0.3995" cy="0.312155" rx="0.3995" ry="0.312155" transform="matrix(0.278448 -0.960451 0.508899 0.860826 231.176 82.972)" fill="white"/>
<ellipse cx="0.201594" cy="0.153685" rx="0.201594" ry="0.153685" transform="matrix(0.268969 0.963149 -0.523036 0.85231 224.388 22.0785)" fill="white" fill-opacity="0.5"/>
<ellipse cx="0.0817982" cy="0.0631312" rx="0.0817982" ry="0.0631312" transform="matrix(0.273703 0.961814 -0.515969 0.856607 213.527 63.7671)" fill="white" fill-opacity="0.5"/>
<ellipse cx="0.19975" cy="0.156078" rx="0.19975" ry="0.156078" transform="matrix(0.278448 -0.960451 0.508899 0.860826 240.291 65.6407)" fill="white" fill-opacity="0.5"/>
<ellipse cx="0.233468" cy="0.0987389" rx="0.233468" ry="0.0987389" transform="matrix(0.0362013 0.999345 -0.978387 0.206781 282.764 41.7518)" fill="white" fill-opacity="0.5"/>
<ellipse cx="0.0951356" cy="0.0403168" rx="0.0951356" ry="0.0403168" transform="matrix(0.0378597 0.999283 -0.97644 0.21579 247.854 85.3141)" fill="white" fill-opacity="0.5"/>
<ellipse cx="0.466935" cy="0.197478" rx="0.466935" ry="0.197478" transform="matrix(0.0362014 0.999345 -0.978387 0.20678 256.776 54.8673)" fill="white" fill-opacity="0.5"/>
<ellipse cx="0.11157" cy="0.227617" rx="0.11157" ry="0.227617" transform="matrix(-0.839533 -0.543309 0.11024 -0.993905 278.303 90.4666)" fill="white" fill-opacity="0.5"/>
<ellipse cx="0.0454961" cy="0.0927645" rx="0.0454961" ry="0.0927645" transform="matrix(-0.838912 -0.544266 0.110483 -0.993878 275.394 41.7518)" fill="white" fill-opacity="0.5"/>
<ellipse cx="0.233467" cy="0.0987389" rx="0.233467" ry="0.0987389" transform="matrix(0.0362015 0.999345 -0.978388 0.206779 254.643 82.0352)" fill="white" fill-opacity="0.5"/>
<ellipse cx="0.160822" cy="0.19595" rx="0.160822" ry="0.19595" transform="matrix(-0.481531 -0.876429 0.297766 -0.954639 264.727 196.328)" fill="white" fill-opacity="0.5"/>
<ellipse cx="0.0655107" cy="0.0799021" rx="0.0655107" ry="0.0799021" transform="matrix(-0.482112 -0.87611 0.297366 -0.954764 268.606 131.218)" fill="white"/>
<ellipse cx="0.321644" cy="0.3919" rx="0.321644" ry="0.3919" transform="matrix(-0.481531 -0.876429 0.297766 -0.954639 271.709 167.755)" fill="white"/>
<ellipse cx="0.151276" cy="0.203409" rx="0.151276" ry="0.203409" transform="matrix(0.537575 -0.843216 0.259589 0.965719 286.061 108.266)" fill="white"/>
<ellipse cx="0.0614515" cy="0.0830605" rx="0.0614515" ry="0.0830605" transform="matrix(0.5407 -0.841215 0.257639 0.966241 263.37 209.443)" fill="white"/>
<ellipse cx="0.160819" cy="0.195946" rx="0.160819" ry="0.195946" transform="matrix(-0.481539 -0.876425 0.297772 -0.954637 264.921 145.271)" fill="white"/>
<ellipse cx="0.195935" cy="0.160835" rx="0.195935" ry="0.160835" transform="matrix(0.297828 0.954619 -0.481446 0.876476 304.097 231.927)" fill="white"/>
<ellipse cx="0.0798331" cy="0.0655978" rx="0.0798331" ry="0.0655978" transform="matrix(0.298252 0.954487 -0.480939 0.876754 293.042 292.352)" fill="white"/>
<ellipse cx="0.391875" cy="0.321676" rx="0.391875" ry="0.321676" transform="matrix(0.297841 0.954616 -0.481462 0.876467 294.012 254.879)" fill="white"/>
<ellipse cx="0.115275" cy="0.225762" rx="0.115275" ry="0.225762" transform="matrix(-0.804454 0.594015 -0.125555 -0.992087 320 257.689)" fill="white"/>
<ellipse cx="0.0468197" cy="0.0921072" rx="0.0468197" ry="0.0921072" transform="matrix(-0.808274 0.588806 -0.123902 -0.992294 306.812 220.217)" fill="white"/>
<ellipse cx="0.195941" cy="0.160842" rx="0.195941" ry="0.160842" transform="matrix(0.297853 0.954612 -0.481479 0.876458 298.085 281.11)" fill="white"/>
<ellipse cx="0.195938" cy="0.160838" rx="0.195938" ry="0.160838" transform="matrix(0.297841 0.954616 -0.481462 0.876467 226.327 120.445)" fill="white"/>
<ellipse cx="0.0798321" cy="0.0655957" rx="0.0798321" ry="0.0655957" transform="matrix(0.298214 0.954499 -0.480888 0.876782 215.079 180.402)" fill="white"/>
<ellipse cx="0.391875" cy="0.321676" rx="0.391875" ry="0.321676" transform="matrix(0.297841 0.954616 -0.481462 0.876467 246.691 137.308)" fill="white"/>
<ellipse cx="0.115275" cy="0.225765" rx="0.115275" ry="0.225765" transform="matrix(-0.80445 0.59402 -0.125553 -0.992087 255.612 113.419)" fill="white"/>
<ellipse cx="0.0468149" cy="0.0921069" rx="0.0468149" ry="0.0921069" transform="matrix(-0.808231 0.588866 -0.123883 -0.992297 229.042 108.266)" fill="white"/>
<ellipse cx="0.19594" cy="0.16084" rx="0.19594" ry="0.16084" transform="matrix(0.297837 0.954617 -0.481458 0.876469 220.121 169.16)" fill="white"/>
<ellipse cx="0.228459" cy="0.109837" rx="0.228459" ry="0.109837" transform="matrix(0.102683 0.994714 -0.856607 0.515969 192.776 73.1354)" fill="white"/>
<ellipse cx="0.0931183" cy="0.0447711" rx="0.0931183" ry="0.0447711" transform="matrix(0.102705 0.994712 -0.856554 0.516058 172.8 117.635)" fill="white"/>
<ellipse cx="0.456912" cy="0.219673" rx="0.456912" ry="0.219673" transform="matrix(0.102684 0.994714 -0.85661 0.515964 179.782 84.3772)" fill="white"/>
<ellipse cx="0.0994998" cy="0.233144" rx="0.0994998" ry="0.233144" transform="matrix(-0.969259 -0.246042 0.0434666 -0.999055 203.249 111.545)" fill="white"/>
<ellipse cx="0.0406422" cy="0.094993" rx="0.0406422" ry="0.094993" transform="matrix(-0.966682 -0.255981 0.0453326 -0.998972 197.43 64.704)" fill="white"/>
<ellipse cx="0.228459" cy="0.109837" rx="0.228459" ry="0.109837" transform="matrix(0.102683 0.994714 -0.856607 0.515969 179.394 112.014)" fill="white"/>
<ellipse cx="0.232323" cy="0.101402" rx="0.232323" ry="0.101402" transform="matrix(-0.058085 -0.998312 0.946902 -0.321522 291.103 188.833)" fill="white"/>
<ellipse cx="0.0947251" cy="0.0412597" rx="0.0947251" ry="0.0412597" transform="matrix(-0.0568826 -0.998381 0.948921 -0.315514 313.018 149.955)" fill="white"/>
<ellipse cx="0.46464" cy="0.202817" rx="0.46464" ry="0.202817" transform="matrix(-0.0580898 -0.998311 0.94691 -0.321498 304.485 180.87)" fill="white"/>
<ellipse cx="0.106618" cy="0.229971" rx="0.106618" ry="0.229971" transform="matrix(0.889618 0.456706 -0.0876471 0.996152 282.376 147.613)" fill="white"/>
<ellipse cx="0.0437258" cy="0.0936163" rx="0.0437258" ry="0.0936163" transform="matrix(0.882799 0.46975 -0.090826 0.995867 286.254 196.328)" fill="white" fill-opacity="0.5"/>
<ellipse cx="0.232317" cy="0.101414" rx="0.232317" ry="0.101414" transform="matrix(-0.0580947 -0.998311 0.946919 -0.321473 306.23 153.702)" fill="white" fill-opacity="0.5"/>
<ellipse cx="0.0817972" cy="0.0631306" rx="0.0817972" ry="0.0631306" transform="matrix(0.273706 0.961813 -0.515975 0.856604 213.527 35.6625)" fill="white" fill-opacity="0.5"/>
<ellipse cx="0.40319" cy="0.307372" rx="0.40319" ry="0.307372" transform="matrix(0.268977 0.963147 -0.523047 0.852304 214.497 39.8782)" fill="white" fill-opacity="0.5"/>
<ellipse cx="0.220167" cy="0.125634" rx="0.220167" ry="0.125634" transform="matrix(0.164997 0.986294 -0.715641 0.698468 271.515 317.646)" fill="white" fill-opacity="0.5"/>
<ellipse cx="0.0896349" cy="0.0514029" rx="0.0896349" ry="0.0514029" transform="matrix(0.166725 0.986003 -0.711869 0.702312 254.254 368.703)" fill="white" fill-opacity="0.5"/>
<ellipse cx="0.440334" cy="0.251261" rx="0.440334" ry="0.251261" transform="matrix(0.164987 0.986296 -0.71562 0.69849 259.297 333.572)" fill="white" fill-opacity="0.5"/>
<ellipse cx="0.0972566" cy="0.234084" rx="0.0972566" ry="0.234084" transform="matrix(-0.996462 0.084041 -0.0144542 -0.999896 284.121 352.309)" fill="white" fill-opacity="0.5"/>
<ellipse cx="0.0396476" cy="0.0954281" rx="0.0396476" ry="0.0954281" transform="matrix(-0.996614 0.0822258 -0.0141436 -0.9999 275.394 307.81)" fill="white"/>
<ellipse cx="0.220167" cy="0.125634" rx="0.220167" ry="0.125634" transform="matrix(0.164997 0.986294 -0.715641 0.698468 260.267 361.208)" fill="white"/>
<ellipse cx="0.137006" cy="0.213281" rx="0.137006" ry="0.213281" transform="matrix(-0.630637 -0.776078 0.206373 -0.978473 250.182 431.939)" fill="white" fill-opacity="0.45"/>
<ellipse cx="0.0561495" cy="0.0867354" rx="0.0561495" ry="0.0867354" transform="matrix(-0.625401 -0.780303 0.209109 -0.977892 249.406 365.893)" fill="white" fill-opacity="0.45"/>
<ellipse cx="0.27401" cy="0.426562" rx="0.27401" ry="0.426562" transform="matrix(-0.630625 -0.776087 0.206368 -0.978474 255.224 401.023)" fill="white" fill-opacity="0.45"/>
<ellipse cx="0.172488" cy="0.185764" rx="0.172488" ry="0.185764" transform="matrix(0.417783 -0.908547 0.349247 0.937031 231.176 425.381)" fill="white" fill-opacity="0.45"/>
<ellipse cx="0.0706998" cy="0.075346" rx="0.0706998" ry="0.075346" transform="matrix(0.412632 -0.910898 0.35382 0.935314 249.794 445.522)" fill="white" fill-opacity="0.45"/>
<ellipse cx="0.137006" cy="0.213281" rx="0.137006" ry="0.213281" transform="matrix(-0.630637 -0.776078 0.206373 -0.978473 246.885 381.35)" fill="white" fill-opacity="0.45"/>
<ellipse cx="0.123446" cy="0.221395" rx="0.123446" ry="0.221395" transform="matrix(0.733312 -0.679892 0.156925 0.987611 201.697 340.598)" fill="white"/>
<ellipse cx="0.0498812" cy="0.0904803" rx="0.0498812" ry="0.0904803" transform="matrix(0.742135 -0.67025 0.15295 0.988234 222.254 383.692)" fill="white" fill-opacity="0.91"/>
<ellipse cx="0.246903" cy="0.442801" rx="0.246903" ry="0.442801" transform="matrix(0.733325 -0.679879 0.15693 0.98761 207.709 370.577)" fill="white" fill-opacity="0.91"/>
<ellipse cx="0.234207" cy="0.0969696" rx="0.234207" ry="0.0969696" transform="matrix(0 1 -1 2.3146e-06 216.437 311.088)" fill="white" fill-opacity="0.91"/>
<ellipse cx="0.095473" cy="0.0395253" rx="0.095473" ry="0.0395253" transform="matrix(0.00172606 0.999999 -0.999949 0.0100736 197.624 330.762)" fill="white" fill-opacity="0.91"/>
<ellipse cx="0.123446" cy="0.221395" rx="0.123446" ry="0.221395" transform="matrix(0.733312 -0.679892 0.156925 0.987611 219.346 368.703)" fill="white" fill-opacity="0.42"/>
<ellipse cx="0.0981005" cy="0.233744" rx="0.0981005" ry="0.233744" transform="matrix(-0.986034 0.166545 -0.0289304 -0.999581 167.952 401.492)" fill="white" fill-opacity="0.42"/>
<ellipse cx="0.0401092" cy="0.0952242" rx="0.0401092" ry="0.0952242" transform="matrix(-0.982422 0.186674 -0.0325467 -0.99947 152.824 346.688)" fill="white" fill-opacity="0.42"/>
<ellipse cx="0.196208" cy="0.467475" rx="0.196208" ry="0.467475" transform="matrix(-0.986036 0.166534 -0.0289323 -0.999581 165.43 368.703)" fill="white" fill-opacity="0.42"/>
<ellipse cx="0.226715" cy="0.113393" rx="0.226715" ry="0.113393" transform="matrix(0.117896 -0.993026 0.822037 0.569434 150.303 420.228)" fill="white" fill-opacity="0.91"/>
<ellipse cx="0.0925018" cy="0.0460395" rx="0.0925018" ry="0.0460395" transform="matrix(0.116063 -0.993242 0.826217 0.563351 170.473 413.671)" fill="white" fill-opacity="0.91"/>
<ellipse cx="0.0981074" cy="0.23373" rx="0.0981074" ry="0.23373" transform="matrix(-0.986038 0.166523 -0.0289343 -0.999581 153.988 363.082)" fill="white"/>
<ellipse cx="0.0981074" cy="0.23373" rx="0.0981074" ry="0.23373" transform="matrix(-0.986038 0.166523 -0.0289343 -0.999581 248.824 303.125)" fill="white"/>
<ellipse cx="0.0401091" cy="0.0952172" rx="0.0401091" ry="0.0952172" transform="matrix(-0.982424 0.186661 -0.0325491 -0.99947 233.891 248.321)" fill="white"/>
<ellipse cx="0.196201" cy="0.46746" rx="0.196201" ry="0.46746" transform="matrix(-0.986036 0.166535 -0.0289321 -0.999581 246.303 270.337)" fill="white"/>
<ellipse cx="0.226715" cy="0.113393" rx="0.226715" ry="0.113393" transform="matrix(0.117896 -0.993026 0.822037 0.569434 231.176 321.862)" fill="white"/>
<ellipse cx="0.0925018" cy="0.0460395" rx="0.0925018" ry="0.0460395" transform="matrix(0.116063 -0.993242 0.826217 0.563351 251.346 315.304)" fill="white"/>
<ellipse cx="0.0981074" cy="0.23373" rx="0.0981074" ry="0.23373" transform="matrix(-0.986038 0.166523 -0.0289343 -0.999581 235.055 264.716)" fill="white"/>
<ellipse cx="0.119246" cy="0.223688" rx="0.119246" ry="0.223688" transform="matrix(-0.768851 -0.639428 0.141101 -0.989995 283.346 260.969)" fill="white" fill-opacity="0.27"/>
<ellipse cx="0.0482245" cy="0.0913804" rx="0.0482245" ry="0.0913804" transform="matrix(-0.776953 -0.629559 0.137507 -0.990501 278.497 195.859)" fill="white" fill-opacity="0.27"/>
<ellipse cx="0.238501" cy="0.447376" rx="0.238501" ry="0.447376" transform="matrix(-0.768871 -0.639404 0.14111 -0.989994 286.254 228.18)" fill="white" fill-opacity="0.27"/>
<ellipse cx="0.191978" cy="0.165561" rx="0.191978" ry="0.165561" transform="matrix(0.317887 -0.948129 0.455154 0.890413 264.146 261.437)" fill="white" fill-opacity="0.27"/>
<ellipse cx="0.0784184" cy="0.0672921" rx="0.0784184" ry="0.0672921" transform="matrix(0.315846 -0.94881 0.457771 0.88907 283.733 274.552)" fill="white" fill-opacity="0.27"/>
<ellipse cx="0.119248" cy="0.223693" rx="0.119248" ry="0.223693" transform="matrix(-0.768843 -0.639437 0.141097 -0.989996 276.945 212.254)" fill="white" fill-opacity="0.27"/>
<ellipse cx="0.13237" cy="0.216198" rx="0.13237" ry="0.216198" transform="matrix(0.663944 0.747782 -0.189522 0.981876 189.867 398.213)" fill="white" fill-opacity="0.27"/>
<ellipse cx="0.0536812" cy="0.0882837" rx="0.0536812" ry="0.0882837" transform="matrix(0.668812 0.743431 -0.187112 0.982339 191.806 463.791)" fill="white" fill-opacity="0.27"/>
<ellipse cx="0.264733" cy="0.432386" rx="0.264733" ry="0.432386" transform="matrix(0.663942 0.747784 -0.189521 0.981877 185.406 430.065)" fill="white"/>
<ellipse cx="0.179243" cy="0.179258" rx="0.179243" ry="0.179258" transform="matrix(-0.382548 0.923935 -0.382473 -0.923966 209.067 402.897)" fill="white"/>
<ellipse cx="0.0730957" cy="0.0730405" rx="0.0730957" ry="0.0730405" transform="matrix(-0.382123 0.924111 -0.382821 -0.923823 190.061 384.629)" fill="white"/>
<ellipse cx="0.132363" cy="0.216188" rx="0.132363" ry="0.216188" transform="matrix(0.66394 0.747786 -0.18952 0.981877 194.133 448.333)" fill="white"/>
<ellipse cx="0.0396329" cy="0.0954281" rx="0.0396329" ry="0.0954281" transform="matrix(-0.996611 0.0822563 -0.0141383 -0.9999 285.285 322.799)" fill="white"/>
<ellipse cx="0.194513" cy="0.468168" rx="0.194513" ry="0.468168" transform="matrix(-0.996462 0.084041 -0.0144542 -0.999896 283.151 322.33)" fill="white"/>
<ellipse cx="0.220167" cy="0.125632" rx="0.220167" ry="0.125632" transform="matrix(-0.164991 -0.986295 0.715632 -0.698477 66.521 398.213)" fill="white"/>
<ellipse cx="0.0899904" cy="0.0507731" rx="0.0899904" ry="0.0507731" transform="matrix(-0.161047 -0.986947 0.724261 -0.689526 83.9756 347.625)" fill="white"/>
<ellipse cx="0.440334" cy="0.251262" rx="0.440334" ry="0.251262" transform="matrix(-0.164989 -0.986295 0.715627 -0.698483 78.7393 382.755)" fill="white"/>
<ellipse cx="0.0970404" cy="0.234185" rx="0.0970404" ry="0.234185" transform="matrix(0.999112 -0.0421226 0.00722446 0.999974 54.1089 363.082)" fill="white"/>
<ellipse cx="0.0395705" cy="0.095438" rx="0.0395705" ry="0.095438" transform="matrix(0.998611 -0.0526856 0.00904287 0.999959 62.4482 408.05)" fill="white"/>
<ellipse cx="0.220167" cy="0.125632" rx="0.220167" ry="0.125632" transform="matrix(-0.164991 -0.986295 0.715632 -0.698477 77.7695 355.119)" fill="white"/>
<ellipse cx="0.139358" cy="0.211753" rx="0.139358" ry="0.211753" transform="matrix(0.614393 0.789001 -0.214954 0.976624 88.4365 284.857)" fill="white"/>
<ellipse cx="0.0568234" cy="0.0862891" rx="0.0568234" ry="0.0862891" transform="matrix(0.613977 0.789324 -0.215173 0.976576 88.8242 350.435)" fill="white"/>
<ellipse cx="0.278715" cy="0.423506" rx="0.278715" ry="0.423506" transform="matrix(0.614387 0.789005 -0.214951 0.976625 83.2002 315.772)" fill="white"/>
<ellipse cx="0.172488" cy="0.185764" rx="0.172488" ry="0.185764" transform="matrix(-0.417783 0.908547 -0.349247 -0.937031 107.249 291.884)" fill="white"/>
<ellipse cx="0.0700411" cy="0.0759546" rx="0.0700411" ry="0.0759546" transform="matrix(-0.421202 0.906967 -0.346259 -0.938139 88.8242 271.273)" fill="white"/>
<ellipse cx="0.139353" cy="0.211743" rx="0.139353" ry="0.211743" transform="matrix(0.6144 0.788995 -0.214958 0.976623 91.3457 335.446)" fill="white"/>
<ellipse cx="0.121325" cy="0.222568" rx="0.121325" ry="0.222568" transform="matrix(-0.751067 0.660226 -0.148986 -0.988839 136.339 377.603)" fill="white"/>
<ellipse cx="0.0492786" cy="0.0908205" rx="0.0492786" ry="0.0908205" transform="matrix(-0.754655 0.656122 -0.147358 -0.989083 115.976 334.041)" fill="white"/>
<ellipse cx="0.242649" cy="0.445147" rx="0.242649" ry="0.445147" transform="matrix(-0.751049 0.660247 -0.148978 -0.988841 130.327 347.156)" fill="white"/>
<ellipse cx="0.234207" cy="0.0969696" rx="0.234207" ry="0.0969696" transform="matrix(0 -1 1 4.51779e-06 121.6 406.645)" fill="white"/>
<ellipse cx="0.0954606" cy="0.0395267" rx="0.0954606" ry="0.0395267" transform="matrix(0.00336924 -0.999994 0.999807 0.0196598 140.218 387.439)" fill="white"/>
<ellipse cx="0.121328" cy="0.222579" rx="0.121328" ry="0.222579" transform="matrix(-0.751051 0.660245 -0.148978 -0.98884 118.885 349.03)" fill="white"/>
<ellipse cx="0.0981003" cy="0.233744" rx="0.0981003" ry="0.233744" transform="matrix(0.986034 -0.166545 0.0289314 0.999581 170.473 317.646)" fill="white"/>
<ellipse cx="0.0399346" cy="0.0952982" rx="0.0399346" ry="0.0952982" transform="matrix(0.987416 -0.158144 0.0274249 0.999624 185.212 372.919)" fill="white"/>
<ellipse cx="0.196207" cy="0.467475" rx="0.196207" ry="0.467475" transform="matrix(0.986036 -0.166534 0.0289334 0.999581 172.8 350.435)" fill="white"/>
<ellipse cx="0.226714" cy="0.113393" rx="0.226714" ry="0.113393" transform="matrix(-0.117896 0.993026 -0.822035 -0.569437 188.121 299.378)" fill="white"/>
<ellipse cx="0.0922262" cy="0.046571" rx="0.0922262" ry="0.046571" transform="matrix(-0.121467 0.992595 -0.813818 -0.581119 167.952 305.468)" fill="white"/>
<ellipse cx="0.0981001" cy="0.23373" rx="0.0981001" ry="0.23373" transform="matrix(0.986035 -0.166535 0.0289332 0.999581 184.048 356.524)" fill="white"/>
<ellipse cx="0.0981036" cy="0.23373" rx="0.0981036" ry="0.23373" transform="matrix(0.986036 -0.16653 0.0289343 0.999581 89.0181 413.202)" fill="white"/>
<ellipse cx="0.0399415" cy="0.0952839" rx="0.0399415" ry="0.0952839" transform="matrix(0.987424 -0.158093 0.027434 0.999624 103.758 468.943)" fill="white"/>
<ellipse cx="0.196207" cy="0.46746" rx="0.196207" ry="0.46746" transform="matrix(0.986036 -0.16653 0.0289343 0.999581 91.3452 446.459)" fill="white"/>
<ellipse cx="0.226714" cy="0.11339" rx="0.226714" ry="0.11339" transform="matrix(-0.117893 0.993026 -0.822027 -0.569449 106.667 395.403)" fill="white"/>
<ellipse cx="0.092238" cy="0.0465754" rx="0.092238" ry="0.0465754" transform="matrix(-0.121461 0.992596 -0.813804 -0.581139 86.4971 401.023)" fill="white"/>
<ellipse cx="0.0981038" cy="0.233744" rx="0.0981038" ry="0.233744" transform="matrix(0.986035 -0.166539 0.0289325 0.999581 102.594 452.549)" fill="white"/>
<ellipse cx="0.11925" cy="0.223688" rx="0.11925" ry="0.223688" transform="matrix(0.768867 0.639409 -0.141107 0.989994 54.3032 454.891)" fill="white"/>
<ellipse cx="0.0488115" cy="0.0910524" rx="0.0488115" ry="0.0910524" transform="matrix(0.764477 0.644651 -0.143075 0.989712 58.9575 519.532)" fill="white"/>
<ellipse cx="0.238501" cy="0.447387" rx="0.238501" ry="0.447387" transform="matrix(0.768856 0.639422 -0.141102 0.989995 51.2002 487.211)" fill="white"/>
<ellipse cx="0.189928" cy="0.167887" rx="0.189928" ry="0.167887" transform="matrix(-0.328184 0.944614 -0.442421 -0.896808 73.5029 454.891)" fill="white"/>
<ellipse cx="0.0778262" cy="0.0679566" rx="0.0778262" ry="0.0679566" transform="matrix(-0.323056 0.94638 -0.448716 -0.893674 53.915 441.307)" fill="white"/>
<ellipse cx="0.119249" cy="0.223688" rx="0.119249" ry="0.223688" transform="matrix(0.768862 0.639415 -0.141105 0.989995 60.5093 503.605)" fill="white"/>
<ellipse cx="0.13237" cy="0.216198" rx="0.13237" ry="0.216198" transform="matrix(-0.663945 -0.747782 0.189521 -0.981877 148.364 319.988)" fill="white"/>
<ellipse cx="0.0543419" cy="0.0878774" rx="0.0543419" ry="0.0878774" transform="matrix(-0.656912 -0.753967 0.192999 -0.981199 197.624 303.125)" fill="white"/>
<ellipse cx="0.264733" cy="0.432386" rx="0.264733" ry="0.432386" transform="matrix(-0.663943 -0.747783 0.18952 -0.981877 153.018 288.605)" fill="white" fill-opacity="0.28"/>
<ellipse cx="0.177019" cy="0.181459" rx="0.177019" ry="0.181459" transform="matrix(0.394051 -0.919089 0.371177 0.928562 129.357 315.304)" fill="white" fill-opacity="0.28"/>
<ellipse cx="0.0724551" cy="0.073672" rx="0.0724551" ry="0.073672" transform="matrix(0.39025 -0.920709 0.374869 0.927078 148.17 334.041)" fill="white" fill-opacity="0.28"/>
<ellipse cx="0.132363" cy="0.216188" rx="0.132363" ry="0.216188" transform="matrix(-0.663941 -0.747785 0.189519 -0.981877 144.485 269.868)" fill="white" fill-opacity="0.28"/>
<ellipse cx="0.0395705" cy="0.095438" rx="0.0395705" ry="0.095438" transform="matrix(0.998611 -0.0526856 0.00904287 0.999959 52.7515 392.592)" fill="white"/>
<ellipse cx="0.194081" cy="0.468354" rx="0.194081" ry="0.468354" transform="matrix(0.999112 -0.0421213 0.00722469 0.999974 54.6909 393.061)" fill="white"/>
<ellipse cx="0.172488" cy="0.185764" rx="0.172488" ry="0.185764" transform="matrix(0.417783 0.908547 -0.349247 0.937031 23.0786 284.389)" fill="white" fill-opacity="0.8"/>
<ellipse cx="0.0702952" cy="0.0757294" rx="0.0702952" ry="0.0757294" transform="matrix(0.41793 0.908479 -0.349101 0.937085 16.8726 348.093)" fill="white" fill-opacity="0.8"/>
<ellipse cx="0.344977" cy="0.371527" rx="0.344977" ry="0.371527" transform="matrix(0.417782 0.908547 -0.349246 0.937031 14.9331 311.088)" fill="white" fill-opacity="0.8"/>
<ellipse cx="0.139358" cy="0.211753" rx="0.139358" ry="0.211753" transform="matrix(-0.614387 0.789005 -0.214951 -0.976625 40.7271 302.189)" fill="white" fill-opacity="0.8"/>
<ellipse cx="0.0565726" cy="0.0864689" rx="0.0565726" ry="0.0864689" transform="matrix(-0.61826 0.785974 -0.212855 -0.977084 24.8242 271.273)" fill="white" fill-opacity="0.8"/>
<ellipse cx="0.172488" cy="0.185764" rx="0.172488" ry="0.185764" transform="matrix(0.417783 0.908547 -0.349247 0.937031 20.9453 334.978)" fill="white" fill-opacity="0.8"/>
<ellipse cx="0.172488" cy="0.185764" rx="0.172488" ry="0.185764" transform="matrix(0.417783 0.908547 -0.349247 0.937031 57.7939 227.243)" fill="white" fill-opacity="0.7"/>
<ellipse cx="0.0702954" cy="0.0757296" rx="0.0702954" ry="0.0757296" transform="matrix(0.417936 0.908477 -0.349106 0.937083 51.5879 291.415)" fill="white" fill-opacity="0.7"/>
<ellipse cx="0.34498" cy="0.371531" rx="0.34498" ry="0.371531" transform="matrix(0.417776 0.90855 -0.349241 0.937033 49.6484 254.411)" fill="white" fill-opacity="0.7"/>
<ellipse cx="0.139357" cy="0.211753" rx="0.139357" ry="0.211753" transform="matrix(-0.614381 0.789009 -0.214948 -0.976626 75.4424 245.042)" fill="white" fill-opacity="0.7"/>
<ellipse cx="0.056571" cy="0.0864641" rx="0.056571" ry="0.0864641" transform="matrix(-0.618289 0.785951 -0.21287 -0.97708 59.5396 214.127)" fill="white" fill-opacity="0.7"/>
<ellipse cx="0.172488" cy="0.185763" rx="0.172488" ry="0.185763" transform="matrix(0.417778 0.908549 -0.349242 0.937032 55.6606 278.3)" fill="white" fill-opacity="0.7"/>
</svg>
